<?xml version="1.0" encoding="utf-8"?>
<!-- Generator: Adobe Illustrator 25.2.0, SVG Export Plug-In . SVG Version: 6.00 Build 0)  -->
<svg version="1.1" id="Ebene_1" xmlns="http://www.w3.org/2000/svg" xmlns:xlink="http://www.w3.org/1999/xlink" x="0px" y="0px"
	 width="16px" height="16px" viewBox="0 0 16 16" style="enable-background:new 0 0 16 16;" xml:space="preserve">
<style type="text/css">
	.st0{fill:#3A3A3A;}
</style>
<path class="st0" d="M6.3099999,2.723c0.5669999-0.325,1.1300001-0.6529999,1.6979995-0.977
	c1.8050003,1.0420001,3.6099997,2.0840001,5.4169998,3.1239998c0.0019999,1.9639997,0.0019999,3.9300003,0,5.8930006
	c0.3120003,0.1669998,0.6199999,0.342,0.9169998,0.5319996c0.21-0.1619997,0.4860001-0.2370005,0.75-0.2040005
	c0.2749996,0.0319996,0.5349998,0.1820002,0.6999998,0.4040003c0.1400003,0.184,0.2139997,0.4169998,0.2069998,0.6470003
	C15.9929991,12.4060001,15.8789988,12.665,15.690999,12.849c-0.1899996,0.1879997-0.4560003,0.3000002-0.724,0.2939997
	c-0.2799997,0.007-0.5579996-0.1169996-0.75-0.3199997c-0.2600002-0.2679996-0.3500004-0.6800003-0.2299995-1.0319996
	c-0.276-0.177-0.5620003-0.3400002-0.8529997-0.4919996l-5.1300001,2.9580002c-1.27-0.7300005-2.54-1.4639997-3.8099999-2.1960001
	c-0.5350001-0.3079996-1.0700002-0.6219997-1.6100001-0.9279995c-0.006-0.9379997,0-1.875-0.003-2.8129997V5.2400017
	c-0.3139999-0.1669998-0.623-0.3400002-0.9200001-0.5339999c-0.193,0.1399999-0.428,0.2220001-0.667,0.21
	c-0.3-0.007-0.595-0.158-0.778-0.3969998c-0.164-0.2080002-0.24-0.48-0.21-0.7449999c0.03-0.2820001,0.184-0.55,0.415-0.7160001
	c0.222-0.165,0.512-0.2319999,0.7839999-0.184c0.252,0.04,0.485,0.1830001,0.642,0.385
	c0.21,0.2650001,0.27,0.6359999,0.1619999,0.9550002c0.28,0.178,0.5680001,0.348,0.8670001,0.4959998
	c1.1430001-0.664,2.29-1.322,3.434-1.983L6.3099999,2.723z M6.0650001,5.7800002
	C6.6069999,5.8740001,7.1550002,5.927,7.7069998,5.9420004V2.835C6.9529996,3.681,6.3899999,4.6950002,6.0650001,5.7800002z
	 M8.309,2.8430002v3.0999997c0.5469999-0.0170002,1.0930004-0.0700002,1.632-0.1630001
	C9.6210003,4.6969995,9.0570002,3.6899998,8.309,2.8430002z M9.3929996,3.2430003
	C9.9029999,3.9800003,10.29,4.7980003,10.5429993,5.658c0.6599998-0.1550002,1.3059998-0.3699999,1.927-0.6399999
	c-1.0270004-0.5929999-2.052-1.1849999-3.0780001-1.7750001L9.3929996,3.2430003z M3.5339999,5.02
	c0.6230001,0.2719998,1.27,0.487,1.9320002,0.6370001C5.7130003,4.8010001,6.1059999,3.987,6.6059999,3.2510002
	c-1.0250001,0.5899999-2.0480003,1.1819999-3.072,1.7699997V5.02z M0.984,3.46C0.849,3.4750001,0.724,3.5599999,0.658,3.678
	c-0.06,0.1029999-0.07,0.23-0.032,0.3400002C0.672,4.1610003,0.798,4.2720003,0.944,4.302
	c0.136,0.0320001,0.285-0.0139999,0.385-0.112C1.4349999,4.086,1.484,3.924,1.4449999,3.78
	c-0.048-0.2-0.257-0.3469999-0.462-0.3199999H0.984z M3.1859999,5.5299997v2.1700001h1.954
	C5.1559997,7.21,5.2160001,6.7219996,5.3179998,6.243C4.586,6.0760002,3.8719997,5.8330002,3.1859999,5.5290003V5.5299997z
	 M10.6879997,6.2419996c0.1000004,0.48,0.1619997,0.967,0.177,1.4569998c0.6529999,0.0019999,1.3050003,0,1.9580002,0V5.52
	C12.1370001,5.8280001,11.4209995,6.0700002,10.6879997,6.2419996z M8.3079996,6.5419998V6.994
	c0.3299999,0.1019998,0.6020002,0.3720002,0.6929998,0.7049999c0.4219999,0.0019999,0.842,0,1.2630005,0
	C10.2439995,7.2490001,10.191,6.8009996,10.092,6.362C9.5050001,6.4679999,8.908,6.5300002,8.3120003,6.5419998H8.3079996z
	 M5.9129996,6.3659997C5.8179998,6.8059998,5.7599998,7.2519999,5.7429996,7.6999998h1.2730002
	C7.1089997,7.3699999,7.3759999,7.0979996,7.704,6.9949999V6.5419998c-0.5999999-0.0100002-1.2000003-0.073-1.79-0.1760001
	H5.9129996z M7.8929996,7.5699997c-0.2049999,0.0549998-0.3460002,0.276-0.3059998,0.4840002
	c0.0349998,0.2250004,0.27,0.3950005,0.4960003,0.3500004c0.2229996-0.0360003,0.3920002-0.2700005,0.3479996-0.493
	c-0.0340004-0.2420001-0.3030005-0.414-0.5380001-0.3400002V7.5699997z M3.1859999,8.2999992v2.1760006
	C3.8699999,10.1659994,4.586,9.9259996,5.316,9.7559996C5.2189999,9.276,5.1539998,8.7889996,5.1409998,8.2999992H3.187H3.1859999z
	 M5.744,8.2999992c0.0159998,0.448,0.0749998,0.8929996,0.1680002,1.3319998c0.5900002-0.1029997,1.1900001-0.1660004,1.79-0.177
	c0.0040002-0.1630001,0.0029998-0.3269997,0-0.4899998C7.3900003,8.8699989,7.1280003,8.6149988,7.0300002,8.3009996
	c-0.428-0.0030003-0.8569999,0-1.2859998,0L5.744,8.2999992z M8.309,8.9669991c0,0.1619997-0.0019999,0.3240004,0,0.4860001
	c0.5979996,0.0150003,1.1940002,0.0760002,1.7840004,0.1800003C10.1870003,9.1929998,10.243,8.7469997,10.2630005,8.2989998
	H8.9899998c-0.1040001,0.3140001-0.3640003,0.573-0.6829996,0.6669998L8.309,8.9669991z M10.8649998,8.3009987
	c-0.0170002,0.4899998-0.0760002,0.9770002-0.1780005,1.4549999c0.7329998,0.1700001,1.4499998,0.4119997,2.1350002,0.7200003
	V8.3000002c-0.6520004,0-1.3039999-0.0019999-1.9569998,0V8.3009987z M6.0640001,10.2200003
	C6.388,11.3059998,6.954,12.3199997,7.7060003,13.1669998V10.059c-0.5500002,0.0100002-1.0999999,0.0670004-1.6420002,0.1599998
	V10.2200003z M8.309,10.0600004v3.0999994c0.7469997-0.8470001,1.3120003-1.8559999,1.6300001-2.9400005
	C9.401,10.1269989,8.8550005,10.0719995,8.309,10.0600004z M3.539,10.9820004c1.02,0.5930004,2.046,1.1820002,3.0700002,1.7700005
	c-0.506-0.7349997-0.8959999-1.5500002-1.145-2.4099998C4.8040004,10.4940014,4.158,10.7090006,3.5380001,10.9820013
	L3.539,10.9820004z M10.5410004,10.342c-0.25,0.8599997-0.6420002,1.6800003-1.1499996,2.4180002
	c1.0270004-0.5900002,2.0529995-1.184,3.0799999-1.7749996c-0.6199999-0.2799997-1.2700005-0.4869995-1.9300003-0.6420002V10.342z
	 M14.8889999,11.6949997c-0.21,0.0369997-0.3739996,0.25-0.3459997,0.4630003
	c0.0170002,0.1899996,0.1739998,0.3529997,0.3620005,0.3800001c0.21,0.0349998,0.427-0.1120005,0.4770002-0.3170004
	c0.0450001-0.1630001-0.0200005-0.3470001-0.1540003-0.4469995c-0.0959997-0.0719995-0.2229996-0.1029997-0.3400002-0.0799999
	L14.8889999,11.6949997z"/>
</svg>
