<svg xmlns="http://www.w3.org/2000/svg" width="16" height="16" viewBox="0 0 16 16"><path fill="#3A3A3A" d="M6.31 2.723c.567-.325 1.13-.653 1.698-.977 1.805 1.042 3.61 2.084 5.417 3.124.002 1.964.002 3.93 0 5.893.312.167.62.342.917.532.21-.162.486-.237.75-.204.275.032.535.182.7.404.14.184.214.417.207.647-.006.264-.12.523-.308.707-.19.188-.456.3-.724.294-.28.007-.558-.117-.75-.32-.26-.268-.35-.68-.23-1.032-.276-.177-.562-.34-.853-.492l-5.13 2.958c-1.27-.73-2.54-1.464-3.81-2.196-.535-.308-1.07-.622-1.61-.928-.006-.938 0-1.875-.003-2.813v-3.08c-.314-.167-.623-.34-.92-.534-.193.14-.428.222-.667.21-.3-.007-.595-.158-.778-.397-.164-.208-.24-.48-.21-.745.03-.282.184-.55.415-.716.222-.165.512-.232.784-.184.252.04.485.183.642.385.21.265.27.636.162.955.28.178.568.348.867.496 1.143-.664 2.29-1.322 3.434-1.983zM6.065 5.78c.542.094 1.09.147 1.642.162V2.835c-.754.846-1.317 1.86-1.642 2.945zm2.244-2.937v3.1c.547-.017 1.093-.07 1.632-.163-.32-1.083-.884-2.09-1.632-2.937zm1.084.4c.51.737.897 1.555 1.15 2.415.66-.155 1.306-.37 1.927-.64-1.027-.593-2.052-1.185-3.078-1.775zM3.534 5.02c.623.272 1.27.487 1.932.637.247-.856.64-1.67 1.14-2.406-1.025.59-2.048 1.182-3.072 1.77zM.984 3.46c-.135.015-.26.1-.326.218-.06.103-.07.23-.032.34.046.143.172.254.318.284.136.032.285-.014.385-.112.106-.104.155-.266.116-.41-.048-.2-.257-.347-.462-.32zm2.202 2.07V7.7H5.14c.016-.49.076-.978.178-1.457-.732-.167-1.446-.41-2.132-.714zm7.502.712c.1.48.162.967.177 1.457.653.002 1.305 0 1.958 0V5.52c-.686.308-1.402.55-2.135.722zm-2.38.3v.452c.33.102.602.372.693.705.422.002.842 0 1.263 0-.02-.45-.073-.898-.172-1.337-.587.106-1.184.168-1.78.18zm-2.395-.176c-.095.44-.153.886-.17 1.334h1.273c.093-.33.36-.602.688-.705v-.453c-.6-.01-1.2-.073-1.79-.176zm1.98 1.204c-.205.055-.346.276-.306.484.035.225.27.395.496.35.223-.036.392-.27.348-.493-.034-.242-.303-.414-.538-.34zm-4.707.73v2.176c.684-.31 1.4-.55 2.13-.72-.097-.48-.162-.967-.175-1.456H3.187zm2.558 0c.016.448.075.893.168 1.332.59-.103 1.19-.166 1.79-.177.004-.163.003-.327 0-.49-.312-.095-.574-.35-.672-.664-.428-.003-.857 0-1.286 0zm2.565.667c0 .162-.002.324 0 .486.598.015 1.194.076 1.784.18.094-.44.15-.886.17-1.334H8.99c-.104.314-.364.573-.683.667zm2.556-.666c-.017.49-.076.977-.178 1.455.733.17 1.45.412 2.135.72V8.3c-.652 0-1.304-.002-1.957 0zM6.064 10.22c.324 1.086.89 2.1 1.642 2.947v-3.108c-.55.01-1.1.067-1.642.16zm2.245-.16v3.1c.747-.847 1.312-1.856 1.63-2.94-.538-.093-1.084-.148-1.63-.16zm-4.77.922c1.02.593 2.046 1.182 3.07 1.77-.506-.735-.896-1.55-1.145-2.41-.66.152-1.306.367-1.926.64zm7.002-.64c-.25.86-.642 1.68-1.15 2.418 1.027-.59 2.053-1.184 3.08-1.775-.62-.28-1.27-.487-1.93-.642zm4.348 1.353c-.21.037-.374.25-.346.463.017.19.174.353.362.38.21.035.427-.112.477-.317.045-.163-.02-.347-.154-.447-.096-.072-.223-.103-.34-.08z"/><g fill="#7C9EC7"><path d="M6.064 5.78c.325-1.085.888-2.1 1.64-2.946V5.94c-.55-.012-1.098-.066-1.64-.16zM8.308 2.843C9.056 3.69 9.62 4.697 9.94 5.78c-.54.093-1.085.146-1.63.163-.002-1.033 0-2.067-.002-3.1zM9.392 3.243c1.026.59 2.05 1.182 3.077 1.773-.622.272-1.268.486-1.928.64C10.29 4.8 9.9 3.98 9.392 3.244zM3.534 5.02c1.024-.588 2.046-1.18 3.072-1.77-.5.738-.894 1.55-1.14 2.407-.662-.15-1.31-.365-1.932-.636zM.984 3.46c.206-.027.414.12.462.32.04.144-.01.306-.117.41-.1.098-.25.144-.387.112C.797 4.272.67 4.16.625 4.02.587 3.907.6 3.78.658 3.677c.065-.12.19-.203.326-.218zM3.186 5.53c.686.302 1.4.546 2.132.713-.103.48-.163.968-.177 1.457H3.187V5.53zM10.688 6.242c.733-.17 1.45-.415 2.135-.723V7.7c-.652 0-1.305.002-1.958 0-.015-.49-.075-.98-.177-1.458zM8.31 6.542c.597-.01 1.193-.073 1.782-.178.1.44.152.887.172 1.337-.422 0-.842.002-1.263 0-.09-.334-.362-.604-.69-.706 0-.15-.002-.3 0-.452zM5.913 6.366c.592.103 1.19.166 1.792.177v.453c-.328.102-.596.373-.688.704H5.745c.015-.448.073-.895.168-1.334zM7.892 7.57c.235-.075.504.098.54.34.043.223-.126.457-.35.492-.224.046-.46-.123-.495-.348-.04-.208.1-.43.305-.484zM3.186 8.3H5.14c.015.49.08.976.176 1.456-.73.17-1.446.41-2.13.72V8.3zM5.744 8.3c.43 0 .857-.002 1.286 0 .098.315.36.57.674.664.002.164.003.327 0 .49-.6.01-1.2.075-1.79.177-.095-.437-.154-.882-.17-1.33zM8.31 8.967c.318-.095.578-.354.683-.668h1.27c-.018.448-.074.894-.168 1.333-.59-.103-1.187-.165-1.785-.18-.003-.16 0-.324 0-.486zM10.866 8.3h1.957v2.175c-.686-.308-1.402-.55-2.135-.72.103-.478.162-.965.178-1.454zM6.064 10.218c.542-.094 1.09-.15 1.64-.16v3.107c-.75-.847-1.316-1.86-1.64-2.947zM8.31 10.057c.546.014 1.092.07 1.63.16-.32 1.084-.883 2.094-1.63 2.94 0-1.033-.002-2.067 0-3.1zM3.54 10.98c.62-.273 1.265-.488 1.925-.64.25.86.64 1.675 1.145 2.412-1.024-.59-2.048-1.18-3.07-1.772zM10.542 10.34c.66.156 1.31.364 1.93.643-1.027.59-2.053 1.185-3.08 1.775.508-.738.9-1.557 1.15-2.417zM14.89 11.693c.118-.023.244.007.34.08.133.1.2.285.153.447-.05.205-.268.352-.477.316-.188-.026-.346-.19-.362-.38-.028-.213.135-.426.346-.463z"/></g></svg>