<?xml version="1.0" encoding="utf-8"?>
<!-- Generator: Adobe Illustrator 16.0.0, SVG Export Plug-In . SVG Version: 6.00 Build 0)  -->
<!DOCTYPE svg PUBLIC "-//W3C//DTD SVG 1.1//EN" "http://www.w3.org/Graphics/SVG/1.1/DTD/svg11.dtd">
<svg version="1.1" id="Ebene_1" xmlns="http://www.w3.org/2000/svg" xmlns:xlink="http://www.w3.org/1999/xlink" x="0px" y="0px"
	 width="16px" height="16px" viewBox="8 8 16 16" enable-background="new 8 8 16 16" xml:space="preserve">
<path fill="#55ACEE" d="M23.996,11.038c-0.589,0.262-1.221,0.438-1.886,0.517c0.678-0.406,1.198-1.049,1.443-1.815
	c-0.635,0.375-1.336,0.65-2.084,0.796c-0.599-0.638-1.452-1.036-2.396-1.036c-1.814,0-3.283,1.469-3.283,3.282
	c0,0.257,0.029,0.508,0.085,0.749c-2.729-0.138-5.147-1.445-6.766-3.43c-0.282,0.485-0.444,1.049-0.444,1.65
	c0,1.14,0.579,2.144,1.459,2.733c-0.538-0.018-1.044-0.166-1.486-0.41v0.04c0,1.591,1.13,2.918,2.632,3.22
	c-0.275,0.074-0.565,0.114-0.865,0.114c-0.211,0-0.417-0.02-0.616-0.059c0.417,1.304,1.63,2.253,3.065,2.28
	c-1.123,0.88-2.538,1.405-4.076,1.405c-0.265,0-0.526-0.016-0.783-0.045c1.454,0.929,3.179,1.473,5.033,1.473
	c6.037,0,9.339-5.001,9.339-9.339c0-0.142-0.004-0.284-0.01-0.425C23,12.274,23.556,11.697,23.996,11.038L23.996,11.038z"/>
</svg>
